<svg width="13" height="15" viewBox="0 0 13 15" fill="none" xmlns="http://www.w3.org/2000/svg">
<g clip-path="url(#clip0)">
<path d="M-0.0728337 13.4849L-0.0728349 13.485C-0.08641 13.6364 -0.0357173 13.7866 0.066902 13.8988C0.169518 14.011 0.314592 14.0749 0.466607 14.0749H10.2919H10.2931C10.5923 14.0749 10.8347 13.8324 10.8347 13.5333V13.5332C10.8347 13.5042 10.8324 13.4756 10.8279 13.4476L10.0371 4.64067C10.012 4.36141 9.77797 4.14752 9.49764 4.14752H7.94132V3.48677C7.94132 2.07415 6.79224 0.925 5.37967 0.925C3.96716 0.925 2.81822 2.07415 2.81822 3.48677V4.14752H1.26077C0.980448 4.14752 0.746394 4.36141 0.721332 4.64067C0.721332 4.64067 0.721332 4.64067 0.721332 4.64068L-0.0728337 13.4849ZM1.75594 5.23073H2.87444C2.96303 5.40913 3.14708 5.53176 3.35982 5.53176C3.57257 5.53176 3.75662 5.40913 3.84521 5.23073H6.91439C7.00298 5.40913 7.18703 5.53176 7.39978 5.53176C7.61252 5.53176 7.79657 5.40913 7.88516 5.23073H9.00253L9.69943 12.9918H1.05905L1.75594 5.23073ZM3.90143 3.48677C3.90143 2.67155 4.56466 2.00822 5.37974 2.00822C6.19488 2.00822 6.85817 2.67156 6.85817 3.48677V4.14752H3.90143V3.48677Z" fill="#252525" stroke="#252525" stroke-width="0.15"/>
</g>
<defs>
<clipPath id="clip0">
<rect width="13" height="15" fill="white"/>
</clipPath>
</defs>
</svg>
