<?xml version="1.0" standalone="no"?>
<!DOCTYPE svg PUBLIC "-//W3C//DTD SVG 20010904//EN"
 "http://www.w3.org/TR/2001/REC-SVG-20010904/DTD/svg10.dtd">
<svg version="1.0" xmlns="http://www.w3.org/2000/svg"
 width="58.000000pt" height="54.000000pt" viewBox="0 0 58.000000 54.000000"
 preserveAspectRatio="xMidYMid meet">

<g transform="translate(0.000000,54.000000) scale(0.100000,-0.100000)"
fill="#000000" stroke="none">
<path d="M95 526 c-88 -39 -120 -162 -69 -264 28 -57 235 -262 264 -262 9 0
66 47 127 105 119 112 163 179 163 244 0 160 -155 249 -261 150 -30 -28 -32
-29 -45 -11 -32 46 -119 64 -179 38z m130 -73 c13 -16 25 -31 25 -35 0 -4 9
-12 21 -18 18 -10 26 -6 63 34 46 50 75 57 124 32 58 -31 79 -82 61 -149 -8
-33 -32 -64 -113 -144 -56 -57 -107 -103 -113 -103 -5 0 -41 29 -78 65 -38 36
-72 65 -76 65 -14 0 -70 85 -80 123 -14 52 3 99 49 137 44 37 80 35 117 -7z"/>
</g>
</svg>
