<svg width="14" height="13" viewBox="0 0 14 13" fill="none" xmlns="http://www.w3.org/2000/svg">
<path d="M6.99997 2.903L6.46571 2.13192C6.23525 1.79929 5.97869 1.52137 5.70234 1.29832L5.70231 1.2983C5.16196 0.862121 4.56477 0.65 3.9109 0.65C3.01881 0.65 2.20082 1.01981 1.59772 1.70249L6.99997 2.903ZM6.99997 2.903L7.53427 2.13195M6.99997 2.903L7.53427 2.13195M7.53427 2.13195C7.76484 1.79921 8.02129 1.52139 8.29755 1.29833C8.83803 0.862117 9.43524 0.65 10.0891 0.65C10.9812 0.65 11.7991 1.01981 12.4022 1.70253M7.53427 2.13195L12.4022 1.70253M12.4022 1.70253C13.0017 2.38124 13.35 3.33049 13.35 4.39123C13.35 5.44874 12.9803 6.4416 12.1025 7.54704L12.1025 7.54707C11.2977 8.56074 10.1284 9.60352 8.70393 10.8704L8.70387 10.8705L8.69097 10.8819C8.21261 11.3075 7.66809 11.7919 7.10281 12.3079L7.10248 12.3082C7.07047 12.3374 7.03386 12.35 7 12.35C6.96621 12.35 6.92969 12.3376 6.89736 12.308L6.89693 12.3076C6.32746 11.7879 5.7794 11.3004 5.29862 10.8727L5.29643 10.8708L5.29639 10.8708M12.4022 1.70253L5.29639 10.8708M5.29639 10.8708C3.87178 9.60365 2.70245 8.56074 1.89758 7.54716C1.01973 6.44156 0.65 5.4487 0.65 4.39134C0.65 3.33051 0.998281 2.38127 1.59766 1.70256L5.29639 10.8708Z" stroke="#252525" stroke-width="1.3"/>
</svg>
