<svg width="16" height="15" viewBox="0 0 16 15" fill="none" xmlns="http://www.w3.org/2000/svg">
<mask id="path-1-outside-1" maskUnits="userSpaceOnUse" x="0" y="0" width="16" height="15" fill="black">
<rect fill="white" width="16" height="15"/>
<path fill-rule="evenodd" clip-rule="evenodd" d="M11.6035 6.80174C11.6035 9.45368 9.45368 11.6035 6.80174 11.6035C4.14981 11.6035 2 9.45368 2 6.80174C2 4.14981 4.14981 2 6.80174 2C9.45368 2 11.6035 4.14981 11.6035 6.80174ZM10.6166 11.173C9.59669 12.0638 8.26224 12.6035 6.80174 12.6035C3.59753 12.6035 1 10.006 1 6.80174C1 3.59753 3.59753 1 6.80174 1C10.006 1 12.6035 3.59753 12.6035 6.80174C12.6035 8.19515 12.1123 9.47382 11.2936 10.474L14.8119 13.1875C15.0233 13.3506 15.0625 13.6542 14.8994 13.8656C14.7364 14.0771 14.4328 14.1163 14.2213 13.9532L10.6166 11.173Z"/>
</mask>
<path fill-rule="evenodd" clip-rule="evenodd" d="M11.6035 6.80174C11.6035 9.45368 9.45368 11.6035 6.80174 11.6035C4.14981 11.6035 2 9.45368 2 6.80174C2 4.14981 4.14981 2 6.80174 2C9.45368 2 11.6035 4.14981 11.6035 6.80174ZM10.6166 11.173C9.59669 12.0638 8.26224 12.6035 6.80174 12.6035C3.59753 12.6035 1 10.006 1 6.80174C1 3.59753 3.59753 1 6.80174 1C10.006 1 12.6035 3.59753 12.6035 6.80174C12.6035 8.19515 12.1123 9.47382 11.2936 10.474L14.8119 13.1875C15.0233 13.3506 15.0625 13.6542 14.8994 13.8656C14.7364 14.0771 14.4328 14.1163 14.2213 13.9532L10.6166 11.173Z" fill="#252525"/>
<path d="M10.6166 11.173L10.7082 11.0543L10.6107 10.9791L10.5179 11.0601L10.6166 11.173ZM11.2936 10.474L11.1775 10.379L11.0797 10.4985L11.202 10.5928L11.2936 10.474ZM14.8119 13.1875L14.9035 13.0687L14.8119 13.1875ZM14.8994 13.8656L14.7807 13.774L14.7807 13.774L14.8994 13.8656ZM14.2213 13.9532L14.3129 13.8344L14.2213 13.9532ZM6.80174 11.7535C9.53652 11.7535 11.7535 9.53652 11.7535 6.80174H11.4535C11.4535 9.37083 9.37083 11.4535 6.80174 11.4535V11.7535ZM1.85 6.80174C1.85 9.53652 4.06697 11.7535 6.80174 11.7535V11.4535C4.23266 11.4535 2.15 9.37083 2.15 6.80174H1.85ZM6.80174 1.85C4.06697 1.85 1.85 4.06697 1.85 6.80174H2.15C2.15 4.23266 4.23266 2.15 6.80174 2.15V1.85ZM11.7535 6.80174C11.7535 4.06697 9.53652 1.85 6.80174 1.85V2.15C9.37083 2.15 11.4535 4.23266 11.4535 6.80174H11.7535ZM6.80174 12.7535C8.29989 12.7535 9.66908 12.1998 10.7153 11.286L10.5179 11.0601C9.5243 11.9279 8.22459 12.4535 6.80174 12.4535V12.7535ZM0.85 6.80174C0.85 10.0888 3.51469 12.7535 6.80174 12.7535V12.4535C3.68037 12.4535 1.15 9.92312 1.15 6.80174H0.85ZM6.80174 0.85C3.51469 0.85 0.85 3.51469 0.85 6.80174H1.15C1.15 3.68037 3.68037 1.15 6.80174 1.15V0.85ZM12.7535 6.80174C12.7535 3.51469 10.0888 0.85 6.80174 0.85V1.15C9.92312 1.15 12.4535 3.68037 12.4535 6.80174H12.7535ZM11.4096 10.5691C12.2495 9.54301 12.7535 8.23103 12.7535 6.80174H12.4535C12.4535 8.15926 11.9751 9.40463 11.1775 10.379L11.4096 10.5691ZM11.202 10.5928L14.7203 13.3063L14.9035 13.0687L11.3852 10.3553L11.202 10.5928ZM14.7203 13.3063C14.8661 13.4188 14.8931 13.6282 14.7807 13.774L15.0182 13.9572C15.2319 13.6802 15.1805 13.2824 14.9035 13.0687L14.7203 13.3063ZM14.7807 13.774C14.6682 13.9198 14.4588 13.9469 14.3129 13.8344L14.1297 14.072C14.4068 14.2856 14.8046 14.2343 15.0182 13.9572L14.7807 13.774ZM14.3129 13.8344L10.7082 11.0543L10.525 11.2918L14.1297 14.072L14.3129 13.8344Z" fill="#252525" mask="url(#path-1-outside-1)"/>
</svg>
