<svg width="15" height="15" viewBox="0 0 15 15" fill="none" xmlns="http://www.w3.org/2000/svg">
<path d="M12.1492 9.35076C11.4682 8.66972 10.6637 8.15675 9.7862 7.83207C10.724 7.13293 11.3328 6.01529 11.3328 4.75781C11.3328 2.64434 9.61347 0.925 7.5 0.925C5.38653 0.925 3.66719 2.64434 3.66719 4.75781C3.66719 6.01529 4.27604 7.13293 5.21382 7.83207C4.33635 8.15676 3.53184 8.66972 2.85078 9.35076C1.60903 10.5925 0.925 12.2439 0.925 14V14.075H1H2.01562H2.09063V14C2.09063 11.0173 4.51732 8.59062 7.5 8.59062C10.4827 8.59062 12.9094 11.0173 12.9094 14V14.075H12.9844H14H14.075V14C14.075 12.2439 13.391 10.5925 12.1492 9.35076L12.0962 9.40379L12.1492 9.35076ZM7.5 7.425C6.02938 7.425 4.83281 6.22845 4.83281 4.75781C4.83281 3.28717 6.02938 2.09063 7.5 2.09063C8.97062 2.09063 10.1672 3.28717 10.1672 4.75781C10.1672 6.22845 8.97062 7.425 7.5 7.425Z" fill="#252525" stroke="#252525" stroke-width="0.15"/>
</svg>
